<?xml version="1.0" standalone="no"?>
<!DOCTYPE svg PUBLIC "-//W3C//DTD SVG 20010904//EN"
 "http://www.w3.org/TR/2001/REC-SVG-20010904/DTD/svg10.dtd">
<svg version="1.0" xmlns="http://www.w3.org/2000/svg"
 width="422.000000pt" height="427.000000pt" viewBox="0 0 422.000000 427.000000"
 preserveAspectRatio="xMidYMid meet">

<g transform="translate(0.000000,427.000000) scale(0.100000,-0.100000)"
fill="#000000" stroke="none">
<path d="M1943 4199 c-257 -19 -523 -94 -767 -215 -624 -310 -1058 -932 -1136
-1629 -13 -117 -13 -331 1 -453 66 -607 406 -1166 914 -1504 200 -132 508
-260 740 -307 682 -137 1395 79 1884 570 353 355 557 797 603 1306 10 119 10
136 -6 177 -28 73 -104 116 -180 102 -50 -10 -86 -44 -139 -133 -303 -517
-938 -756 -1506 -567 -189 63 -352 164 -497 309 -152 151 -258 324 -322 525
-43 138 -56 227 -56 385 2 263 75 500 224 720 100 149 278 309 431 390 112 59
156 130 131 214 -21 70 -104 123 -187 120 -16 -1 -76 -5 -132 -10z"/>
</g>
</svg>
